<?xml version="1.0" encoding="utf-8"?>
<!-- Generator: Adobe Illustrator 15.0.0, SVG Export Plug-In . SVG Version: 6.00 Build 0)  -->
<!DOCTYPE svg PUBLIC "-//W3C//DTD SVG 1.1//EN" "http://www.w3.org/Graphics/SVG/1.1/DTD/svg11.dtd">
<svg version="1.1" id="Layer_1" xmlns="http://www.w3.org/2000/svg" xmlns:xlink="http://www.w3.org/1999/xlink" x="0px" y="0px"
	 width="100px" height="100px" viewBox="0 0 100 100" enable-background="new 0 0 100 100" xml:space="preserve">
<path fill="#3D3D3D" d="M61.204,50.211l37.915-37.916c1.174-1.174,1.174-3.081,0-4.255L92.74,1.661c-1.18-1.177-3.084-1.177-4.26,0
	L50.214,39.929L11.519,1.097c-1.175-1.177-3.079-1.177-4.258,0l-6.38,6.38c-1.175,1.177-1.175,3.081,0,4.258l37.915,38.052
	L0.881,87.704c-1.174,1.174-1.174,3.08,0,4.254l6.379,6.379c1.18,1.179,3.084,1.179,4.259,0l38.267-38.269L88.482,98.9
	c1.174,1.178,3.078,1.178,4.258,0l6.379-6.379c1.174-1.18,1.174-3.082,0-4.258L61.204,50.211z"/>
</svg>
